<?xml version="1.0" encoding="utf-8"?>
<!-- Generator: Adobe Illustrator 27.2.0, SVG Export Plug-In . SVG Version: 6.00 Build 0)  -->
<svg version="1.1" id="Layer_1" xmlns="http://www.w3.org/2000/svg" xmlns:xlink="http://www.w3.org/1999/xlink" x="0px" y="0px"
	 viewBox="0 0 182 50" style="enable-background:new 0 0 182 50;" xml:space="preserve">
<style type="text/css">
	.st0{fill:#D9D9D9;}
	.st1{fill:url(#SVGID_1_);}
	.st2{fill:url(#SVGID_00000077302715577579652350000016407609816168636052_);stroke:#1A1F28;stroke-width:3;}
	.st3{fill:#FFFFFF;}
</style>
<circle class="st0" cx="25" cy="25" r="25"/>
<linearGradient id="SVGID_1_" gradientUnits="userSpaceOnUse" x1="25" y1="52" x2="25" y2="2" gradientTransform="matrix(1 0 0 -1 0 52)">
	<stop  offset="0" style="stop-color:#0D4BEC"/>
	<stop  offset="1" style="stop-color:#2AE480"/>
</linearGradient>
<circle class="st1" cx="25" cy="25" r="25"/>
<linearGradient id="SVGID_00000143581324592973473030000001303158835283828127_" gradientUnits="userSpaceOnUse" x1="40" y1="45" x2="40" y2="9" gradientTransform="matrix(1 0 0 -1 0 52)">
	<stop  offset="0" style="stop-color:#6943BA"/>
	<stop  offset="1" style="stop-color:#FF8329"/>
</linearGradient>
<circle style="fill:url(#SVGID_00000143581324592973473030000001303158835283828127_);stroke:#1A1F28;stroke-width:3;" cx="40" cy="25" r="19.5"/>
<g>
	<path class="st3" d="M65.5,34.7V17.5h3.4v14.3h3.5v2.9H65.5z"/>
	<path class="st3" d="M78.1,34.9c-1.2,0-2.2-0.4-3-1.2S74,31.9,74,30.5v-7.9c0-1.7,0.3-2.9,1-3.8c0.7-0.9,1.7-1.3,3.2-1.3
		c0.8,0,1.5,0.1,2.2,0.4s1.1,0.7,1.5,1.3s0.5,1.3,0.5,2.3v3H79v-2.5c0-0.5-0.1-0.9-0.2-1s-0.3-0.3-0.6-0.3c-0.3,0-0.5,0.1-0.6,0.3
		s-0.2,0.5-0.2,0.9v8.6c0,0.5,0.1,0.8,0.2,1s0.3,0.3,0.6,0.3c0.3,0,0.5-0.1,0.6-0.4s0.2-0.6,0.2-0.9v-3.1h3.5v3.3
		c0,1.5-0.4,2.6-1.1,3.3S79.5,34.9,78.1,34.9z"/>
	<path class="st3" d="M83.8,34.7l1.7-17.2h5.8L93,34.7h-3.3L89.5,32h-2.1l-0.2,2.8H83.8z M87.6,29.2h1.6l-0.8-8.7h-0.2L87.6,29.2z"
		/>
	<path class="st3" d="M100.1,34.7V17.5h4.5c1,0,1.7,0.2,2.3,0.6s1,1,1.2,1.8s0.4,1.7,0.4,2.8c0,1-0.1,1.9-0.3,2.7
		c-0.2,0.8-0.6,1.4-1.1,1.8s-1.3,0.6-2.2,0.6h-1.4v6.8H100.1z M103.5,24.8h0.2c0.6,0,1-0.2,1.2-0.5s0.2-0.9,0.2-1.6
		c0-0.7-0.1-1.2-0.2-1.5s-0.5-0.5-1-0.5h-0.4V24.8z"/>
	<path class="st3" d="M114.3,34.9c-1.4,0-2.4-0.4-3.1-1.2s-1.1-2-1.1-3.6v-8.2c0-1.5,0.4-2.6,1.1-3.3s1.8-1.1,3.2-1.1
		s2.4,0.4,3.2,1.1s1.1,1.9,1.1,3.3V30c0,1.6-0.4,2.8-1.1,3.6S115.7,34.9,114.3,34.9z M114.4,31.7c0.5,0,0.8-0.5,0.8-1.5v-8.4
		c0-0.8-0.3-1.3-0.8-1.3c-0.6,0-0.9,0.4-0.9,1.3v8.4c0,0.5,0.1,0.9,0.2,1.1S114.1,31.7,114.4,31.7z"/>
	<path class="st3" d="M120.7,34.7V17.5h5.3c0.9,0,1.5,0.2,2,0.6s0.8,1,0.9,1.7c0.2,0.7,0.2,1.6,0.2,2.5c0,0.9-0.1,1.7-0.4,2.2
		s-0.7,0.9-1.3,1.2c0.5,0.1,0.9,0.4,1.1,0.8s0.3,1,0.3,1.7v6.5h-3.4V28c0-0.5-0.1-0.8-0.3-0.9s-0.5-0.2-1-0.2v7.8H120.7z
		 M124.2,23.9h0.8c0.5,0,0.7-0.5,0.7-1.6c0-0.7-0.1-1.1-0.2-1.3s-0.3-0.3-0.6-0.3h-0.8V23.9z"/>
	<path class="st3" d="M132.4,34.7V20.8h-2v-3.3h7.5v3.3h-2v13.9H132.4z"/>
	<path class="st3" d="M139.5,34.7V17.5h6.9v3.3H143v2.7h3.2v3.3H143v7.8H139.5z"/>
	<path class="st3" d="M152.3,34.9c-1.4,0-2.4-0.4-3.1-1.2s-1.1-2-1.1-3.6v-8.2c0-1.5,0.4-2.6,1.1-3.3s1.8-1.1,3.2-1.1
		s2.4,0.4,3.2,1.1s1.1,1.9,1.1,3.3V30c0,1.6-0.4,2.8-1.1,3.6S153.7,34.9,152.3,34.9z M152.3,31.7c0.5,0,0.8-0.5,0.8-1.5v-8.4
		c0-0.8-0.3-1.3-0.8-1.3c-0.6,0-0.9,0.4-0.9,1.3v8.4c0,0.5,0.1,0.9,0.2,1.1S152,31.7,152.3,31.7z"/>
	<path class="st3" d="M158.6,34.7V17.5h3.4v14.3h3.5v2.9H158.6z"/>
	<path class="st3" d="M167.1,34.7V17.5h3.3v17.2H167.1z"/>
	<path class="st3" d="M176.6,34.9c-1.4,0-2.4-0.4-3.1-1.2s-1.1-2-1.1-3.6v-8.2c0-1.5,0.4-2.6,1.1-3.3s1.8-1.1,3.2-1.1
		s2.4,0.4,3.2,1.1s1.1,1.9,1.1,3.3V30c0,1.6-0.4,2.8-1.1,3.6S178,34.9,176.6,34.9z M176.6,31.7c0.5,0,0.8-0.5,0.8-1.5v-8.4
		c0-0.8-0.3-1.3-0.8-1.3c-0.6,0-0.9,0.4-0.9,1.3v8.4c0,0.5,0.1,0.9,0.2,1.1S176.3,31.7,176.6,31.7z"/>
</g>
</svg>
